<?xml version="1.0" encoding="utf-8"?>
<!-- Generator: Adobe Illustrator 17.1.0, SVG Export Plug-In . SVG Version: 6.00 Build 0)  -->
<!DOCTYPE svg PUBLIC "-//W3C//DTD SVG 1.1//EN" "http://www.w3.org/Graphics/SVG/1.1/DTD/svg11.dtd">
<svg version="1.1" id="Layer_1" xmlns="http://www.w3.org/2000/svg" xmlns:xlink="http://www.w3.org/1999/xlink" x="0px" y="0px"
	 viewBox="20.9 195.3 800 800" enable-background="new 20.9 195.3 800 800" xml:space="preserve">
<g>
	<rect x="611.2" y="507.5" fill="none" stroke="#3F4B8A" stroke-width="14" stroke-miterlimit="10" width="88.6" height="342.4"/>
	<rect x="142.1" y="507.5" fill="none" stroke="#3F4B8A" stroke-width="14" stroke-miterlimit="10" width="88.6" height="342.4"/>
	<polygon fill="none" stroke="#3F4B8A" stroke-width="14" stroke-miterlimit="10" points="212.3,409.6 160.5,409.6 145.5,507.5 
		227.3,507.5 	"/>
	<polygon fill="none" stroke="#3F4B8A" stroke-width="14" stroke-miterlimit="10" points="681.4,409.6 629.6,409.6 614.6,507.5 
		696.4,507.5 	"/>
	<rect x="230.7" y="567.4" fill="none" stroke="#3F4B8A" stroke-width="14" stroke-miterlimit="10" width="380.5" height="282.5"/>
	<polygon fill="none" stroke="#3F4B8A" stroke-width="14" stroke-miterlimit="10" points="462.9,469.5 379,469.5 309.2,567.4 
		532.7,567.4 	"/>
	<line fill="none" stroke="#3F4B8A" stroke-width="14" stroke-miterlimit="10" x1="611.2" y1="449.8" x2="699.8" y2="449.8"/>
	<line fill="none" stroke="#3F4B8A" stroke-width="14" stroke-miterlimit="10" x1="142.1" y1="449.8" x2="230.7" y2="449.8"/>
	<circle fill="none" stroke="#3F4B8A" stroke-width="14" stroke-miterlimit="10" cx="186.4" cy="570.2" r="23.2"/>
	<circle fill="none" stroke="#3F4B8A" stroke-width="14" stroke-miterlimit="10" cx="655.5" cy="570.2" r="23.2"/>
	<rect x="175.6" y="340.7" fill="none" stroke="#3F4B8A" stroke-width="14" stroke-miterlimit="10" width="21.7" height="68.9"/>
	<rect x="644.7" y="340.7" fill="none" stroke="#3F4B8A" stroke-width="14" stroke-miterlimit="10" width="21.7" height="68.9"/>
	<rect x="410.1" y="386.2" fill="none" stroke="#3F4B8A" stroke-width="14" stroke-miterlimit="10" width="21.7" height="48.8"/>
	<polygon fill="none" stroke="#3F4B8A" stroke-width="14" stroke-miterlimit="10" points="442.6,469.5 399.3,469.5 410.1,435 
		431.8,435 	"/>
	<path fill="none" stroke="#3F4B8A" stroke-width="14" stroke-miterlimit="10" d="M655.5,643.5c-12.8,0-23.2,10.4-23.2,23.2v44.6
		h46.4v-44.6C678.7,653.9,668.3,643.5,655.5,643.5z"/>
	<path fill="none" stroke="#3F4B8A" stroke-width="14" stroke-miterlimit="10" d="M186.4,643.5c-12.8,0-23.2,10.4-23.2,23.2v44.6
		h46.4v-44.6C209.6,653.9,199.2,643.5,186.4,643.5z"/>
	<line fill="none" stroke="#3F4B8A" stroke-width="14" stroke-miterlimit="10" x1="142.1" y1="711.4" x2="272" y2="711.4"/>
	<line fill="none" stroke="#3F4B8A" stroke-width="14" stroke-miterlimit="10" x1="569.9" y1="711.4" x2="699.8" y2="711.4"/>
	<line fill="none" stroke="#3F4B8A" stroke-width="14" stroke-miterlimit="10" x1="230.7" y1="782.1" x2="611.2" y2="782.1"/>
	<rect x="272" y="749.6" fill="none" stroke="#3F4B8A" stroke-width="14" stroke-miterlimit="10" width="34.7" height="32.5"/>
	<rect x="337.8" y="749.6" fill="none" stroke="#3F4B8A" stroke-width="14" stroke-miterlimit="10" width="34.7" height="32.5"/>
	<rect x="403.6" y="749.6" fill="none" stroke="#3F4B8A" stroke-width="14" stroke-miterlimit="10" width="34.7" height="32.5"/>
	<rect x="469.4" y="749.6" fill="none" stroke="#3F4B8A" stroke-width="14" stroke-miterlimit="10" width="34.7" height="32.5"/>
	<rect x="535.2" y="749.6" fill="none" stroke="#3F4B8A" stroke-width="14" stroke-miterlimit="10" width="34.7" height="32.5"/>
	<g>
		<line fill="none" stroke="#3F4B8A" stroke-width="14" stroke-miterlimit="10" x1="297.3" y1="627.9" x2="357.4" y2="688.1"/>
		<line fill="none" stroke="#3F4B8A" stroke-width="14" stroke-miterlimit="10" x1="357.4" y1="627.9" x2="297.3" y2="688.1"/>
	</g>
	<g>
		<line fill="none" stroke="#3F4B8A" stroke-width="14" stroke-miterlimit="10" x1="390.9" y1="627.9" x2="451" y2="688.1"/>
		<line fill="none" stroke="#3F4B8A" stroke-width="14" stroke-miterlimit="10" x1="451" y1="627.9" x2="390.9" y2="688.1"/>
	</g>
	<g>
		<line fill="none" stroke="#3F4B8A" stroke-width="14" stroke-miterlimit="10" x1="484.5" y1="627.9" x2="544.6" y2="688.1"/>
		<line fill="none" stroke="#3F4B8A" stroke-width="14" stroke-miterlimit="10" x1="544.6" y1="627.9" x2="484.5" y2="688.1"/>
	</g>
</g>
</svg>
