<?xml version="1.0" encoding="utf-8"?>
<!-- Generator: Adobe Illustrator 17.1.0, SVG Export Plug-In . SVG Version: 6.00 Build 0)  -->
<!DOCTYPE svg PUBLIC "-//W3C//DTD SVG 1.1//EN" "http://www.w3.org/Graphics/SVG/1.1/DTD/svg11.dtd">
<svg version="1.1" id="Layer_1" xmlns="http://www.w3.org/2000/svg" xmlns:xlink="http://www.w3.org/1999/xlink" x="0px" y="0px"
	 viewBox="0 0 838.6 407.1" enable-background="new 0 0 838.6 407.1" xml:space="preserve">
<circle fill="#FFBE00" cx="758.3" cy="353.2" r="14.4"/>
<g>
	<path fill="#FFBE00" d="M723.4,268.2v17.6h-2.7l-9.9-14.1v14.1h-2.5v-17.6h2.8l9.9,14v-14H723.4z"/>
	<path fill="#FFBE00" d="M739.1,279.3c0,5.6-3.4,6.8-6.2,6.8s-6.2-1.2-6.2-6.8c0-5.6,3.4-6.8,6.2-6.8S739.1,273.6,739.1,279.3z
		 M736.7,279.3c0-4.1-1.8-4.7-3.8-4.7s-3.8,0.6-3.8,4.7s1.8,4.7,3.8,4.7S736.7,283.4,736.7,279.3z"/>
	<path fill="#FFBE00" d="M754.1,279.3c0,5.6-3.4,6.8-6.2,6.8s-6.2-1.2-6.2-6.8c0-5.6,3.4-6.8,6.2-6.8S754.1,273.6,754.1,279.3z
		 M751.7,279.3c0-4.1-1.8-4.7-3.8-4.7s-3.8,0.6-3.8,4.7s1.8,4.7,3.8,4.7S751.7,283.4,751.7,279.3z"/>
	<path fill="#FFBE00" d="M759.7,285.8h-2.4v-12.1c0.1-0.1,2.9-1.3,6.4-1.3v2.2c-1.6,0-3,0.3-4,0.6V285.8z"/>
	<path fill="#FFBE00" d="M771.3,272.4c1,0,1.9,0.1,2.8,0.4v-5.2h2.4v14.2c0,1-0.4,4.3-5.5,4.3c-2.2,0-5.8-0.9-5.8-7
		C765.3,273.6,768.6,272.4,771.3,272.4z M771.1,283.9c2,0,3-0.7,3-2v-6.8c-0.9-0.4-1.9-0.6-2.8-0.6c-1.9,0-3.7,0.6-3.7,4.5
		C767.7,283.4,769.5,283.9,771.1,283.9z"/>
	<path fill="#FFBE00" d="M798.8,272.6l-4.4,13.2h-2.4l-2.9-9.2l-2.9,9.2h-2.4l-4.4-13.2h2.7l3,9.8l2.9-9.8h2.2l2.9,9.8l2.9-9.8
		H798.8z"/>
	<path fill="#FFBE00" d="M804.5,270.6h-2.6V268h2.6V270.6z M802,272.6h2.4v13.2H802V272.6z"/>
	<path fill="#FFBE00" d="M810.9,286.6c0,3-1.5,4.4-4.7,4.4V289c2,0,2.3-1.1,2.3-2.4v-14h2.4V286.6z M808.4,268h2.6v2.6h-2.6V268z"/>
	<path fill="#FFBE00" d="M827.1,285.8h-3.2l-4.9-6.1l-1.6,1.6v4.6h-2.4v-18.2h2.4v10.6l5.7-5.5h3.3l-5.7,5.5L827.1,285.8z"/>
</g>
<circle fill="#FFBE00" cx="120.8" cy="114.7" r="14.4"/>
<g>
	<path fill="#FFBE00" d="M32.7,32.5H27v14.8h-2.3V32.5h-5.7v-2.2h13.8V32.5z"/>
	<path fill="#FFBE00" d="M35.8,47.2h-2.3V35.6c0.1-0.1,2.8-1.3,6.2-1.3v2.1c-1.5,0-2.9,0.3-3.8,0.5V47.2z"/>
	<path fill="#FFBE00" d="M52,39.6v3.7c0,1-0.4,4.1-5.3,4.1c-5,0-5.4-3.2-5.4-4.2c0-2.5,2.2-4,6-4c0.8,0,1.6,0.1,2.3,0.2
		c-0.1-2.1-1-3-3.5-3c-1.5,0-2.7,0.4-3.5,0.6v-2c0.9-0.4,2.2-0.7,3.8-0.7C50,34.3,52,36.2,52,39.6z M49.6,41.2
		c-0.6-0.1-1.4-0.2-2.2-0.2c-1.1,0-3.8,0.3-3.8,2.1c0,1.5,1,2.2,3.1,2.2c1.9,0,2.9-0.7,2.9-2.1V41.2z"/>
	<path fill="#FFBE00" d="M55.4,47.2V35.6c0.1-0.1,2.4-1.3,5.4-1.3c3.2,0,5.1,1.8,5.1,4.7v8.2h-2.3v-8.4c0-1.2-0.3-2.4-2.9-2.4
		c-1.1,0-2.2,0.2-3,0.5v10.3H55.4z"/>
	<path fill="#FFBE00" d="M77.1,35.2v2c-0.9-0.4-2-0.8-3.1-0.8c-2.1,0-2.5,0.8-2.5,1.6c0,2,6.5,0.9,6.5,5.7c0,1.8-1.2,3.7-4.7,3.7
		c-1.6,0-2.8-0.4-3.7-0.9v-2.1c0.8,0.5,2,0.9,3.6,0.9c1.7,0,2.5-0.7,2.5-1.6c0-2.9-6.5-1.3-6.5-5.7c0-1.8,1.2-3.8,4.6-3.8
		C74.9,34.3,76.1,34.6,77.1,35.2z"/>
	<path fill="#FFBE00" d="M84.1,33.9v0.6h3.3v2h-3.3v10.7h-2.3V36.6H80v-2h1.8v-0.6c0-3.1,1.4-4.7,4.2-4.7c0.5,0,1,0.1,1.4,0.2v2
		c-0.3-0.1-0.6-0.1-0.9-0.1C85.2,31.3,84.1,31.3,84.1,33.9z"/>
	<path fill="#FFBE00" d="M100.8,40.9c0,5.4-3.3,6.5-6,6.5s-6-1.1-6-6.5s3.3-6.5,6-6.5S100.8,35.5,100.8,40.9z M98.5,40.9
		c0-3.9-1.7-4.5-3.6-4.5c-1.9,0-3.6,0.5-3.6,4.5s1.7,4.5,3.6,4.5C96.8,45.4,98.5,44.8,98.5,40.9z"/>
	<path fill="#FFBE00" d="M106.3,47.2h-2.3V35.6c0.1-0.1,2.8-1.3,6.2-1.3v2.1c-1.5,0-2.9,0.3-3.8,0.5V47.2z"/>
	<path fill="#FFBE00" d="M131.2,39.1v8.2h-2.3v-8.3c0-1.2-0.3-2.4-2.6-2.4c-1.5,0-2.7,0.4-3.4,0.7c0.2,0.6,0.3,1.2,0.3,1.9v8.2h-2.3
		v-8.3c0-1.2-0.3-2.4-2.9-2.4c-1,0-2,0.2-2.8,0.4v10.3h-2.3V35.6c0.5-0.2,2.6-1.3,5.3-1.3c1.4,0,2.5,0.4,3.4,1c0.9-0.4,2.6-1,4.7-1
		C129.3,34.3,131.2,36.1,131.2,39.1z"/>
	<path fill="#FFBE00" d="M144.9,39.6v3.7c0,1-0.4,4.1-5.3,4.1c-5,0-5.4-3.2-5.4-4.2c0-2.5,2.2-4,6-4c0.8,0,1.6,0.1,2.3,0.2
		c-0.1-2.1-1-3-3.5-3c-1.5,0-2.7,0.4-3.5,0.6v-2c0.9-0.4,2.2-0.7,3.8-0.7C142.9,34.3,144.9,36.2,144.9,39.6z M142.5,41.2
		c-0.6-0.1-1.4-0.2-2.2-0.2c-1.1,0-3.8,0.3-3.8,2.1c0,1.5,1,2.2,3.1,2.2c1.9,0,2.9-0.7,2.9-2.1V41.2z"/>
	<path fill="#FFBE00" d="M151.3,36.5v7.4c0,1.1,0.7,1.5,1.9,1.5c0.7,0,1.1-0.2,1.5-0.4v2.1c-0.5,0.2-1.1,0.4-1.8,0.4
		c-0.8,0-3.9-0.3-3.9-3.7v-7.2h-2.2v-2h2.2v-3.8h2.3v3.8h3.4v2H151.3z"/>
	<path fill="#FFBE00" d="M168.9,40.9c0,5.4-3.3,6.5-6,6.5s-6-1.1-6-6.5s3.3-6.5,6-6.5S168.9,35.5,168.9,40.9z M166.6,40.9
		c0-3.9-1.7-4.5-3.6-4.5c-1.9,0-3.6,0.5-3.6,4.5s1.7,4.5,3.6,4.5C164.9,45.4,166.6,44.8,166.6,40.9z"/>
	<path fill="#FFBE00" d="M174.4,47.2H172V35.6c0.1-0.1,2.8-1.3,6.2-1.3v2.1c-1.5,0-2.9,0.3-3.8,0.5V47.2z"/>
	<path fill="#FFBE00" d="M191.8,39.7v7.5h-2.3v-7.6c0-2.8-1.5-3.1-2.9-3.1c-1.2,0-2.3,0.3-3.1,0.6v10.1h-2.3V29.7h2.3V35
		c0.9-0.4,2.1-0.6,3.4-0.6C190,34.3,191.8,36.3,191.8,39.7z"/>
	<path fill="#FFBE00" d="M206.2,34.5v7.4c0,3.5-2,5.6-5.4,5.6c-3.4,0-5.4-2-5.4-5.6v-7.4h2.3v7.5c0,2.3,0.9,3.3,3.1,3.3
		c2.1,0,3-1,3-3.3v-7.5H206.2z"/>
	<path fill="#FFBE00" d="M212.9,32.6h-2.5v-2.5h2.5V32.6z M210.4,34.5h2.3v12.7h-2.3V34.5z"/>
	<path fill="#FFBE00" d="M224.1,35.2v2c-0.9-0.4-2-0.8-3.1-0.8c-2.1,0-2.5,0.8-2.5,1.6c0,2,6.5,0.9,6.5,5.7c0,1.8-1.2,3.7-4.7,3.7
		c-1.6,0-2.8-0.4-3.7-0.9v-2.1c0.8,0.5,2,0.9,3.6,0.9c1.7,0,2.5-0.7,2.5-1.6c0-2.9-6.5-1.3-6.5-5.7c0-1.8,1.2-3.8,4.6-3.8
		C221.9,34.3,223.1,34.6,224.1,35.2z"/>
</g>
<circle fill="none" stroke="#FFBE00" stroke-width="6" stroke-miterlimit="10" cx="122" cy="114.7" r="42.8"/>
<circle fill="none" stroke="#FFBE00" stroke-width="6" stroke-miterlimit="10" cx="758.3" cy="353.2" r="42.8"/>
<polyline fill="none" stroke="#FFBE00" stroke-width="6" stroke-miterlimit="10" points="122,114.7 275,173 379,338.8 621,338.8 
	758.3,353.2 "/>
</svg>
