<?xml version="1.0" encoding="utf-8"?>
<!-- Generator: Adobe Illustrator 17.1.0, SVG Export Plug-In . SVG Version: 6.00 Build 0)  -->
<!DOCTYPE svg PUBLIC "-//W3C//DTD SVG 1.1//EN" "http://www.w3.org/Graphics/SVG/1.1/DTD/svg11.dtd">
<svg version="1.1" id="Layer_1" xmlns="http://www.w3.org/2000/svg" xmlns:xlink="http://www.w3.org/1999/xlink" x="0px" y="0px"
	 viewBox="0 0 725.6 302.1" enable-background="new 0 0 725.6 302.1" xml:space="preserve">
<polyline fill="none" stroke="#FFBE00" stroke-width="6" stroke-miterlimit="10" points="8.9,9.2 199.9,87.2 414.1,265.1 
	645.3,248.2 "/>
<circle fill="none" stroke="#FFBE00" stroke-width="6" stroke-miterlimit="10" cx="645.3" cy="248.2" r="42.8"/>
<circle fill="#FFBE00" stroke="#FFBE00" stroke-width="6" stroke-miterlimit="10" cx="645.3" cy="248.2" r="14.4"/>
<g>
	<path fill="#FFBE00" d="M610.4,163.2v17.6h-2.7l-9.9-14.1v14.1h-2.5v-17.6h2.8l9.9,14v-14H610.4z"/>
	<path fill="#FFBE00" d="M626.1,174.3c0,5.6-3.4,6.8-6.2,6.8s-6.2-1.2-6.2-6.8c0-5.6,3.4-6.8,6.2-6.8S626.1,168.6,626.1,174.3z
		 M623.7,174.3c0-4.1-1.8-4.7-3.8-4.7s-3.8,0.6-3.8,4.7s1.8,4.7,3.8,4.7S623.7,178.4,623.7,174.3z"/>
	<path fill="#FFBE00" d="M641.1,174.3c0,5.6-3.4,6.8-6.2,6.8s-6.2-1.2-6.2-6.8c0-5.6,3.4-6.8,6.2-6.8S641.1,168.6,641.1,174.3z
		 M638.7,174.3c0-4.1-1.8-4.7-3.8-4.7s-3.8,0.6-3.8,4.7s1.8,4.7,3.8,4.7S638.7,178.4,638.7,174.3z"/>
	<path fill="#FFBE00" d="M646.7,180.8h-2.4v-12.1c0.1-0.1,2.9-1.3,6.4-1.3v2.2c-1.6,0-3,0.3-4,0.6V180.8z"/>
	<path fill="#FFBE00" d="M658.3,167.4c1,0,1.9,0.1,2.8,0.4v-5.2h2.4v14.2c0,1-0.4,4.3-5.5,4.3c-2.2,0-5.8-0.9-5.8-7
		C652.3,168.6,655.6,167.4,658.3,167.4z M658.1,178.9c2,0,3-0.7,3-2v-6.8c-0.9-0.4-1.9-0.6-2.8-0.6c-1.9,0-3.7,0.6-3.7,4.5
		C654.7,178.4,656.5,178.9,658.1,178.9z"/>
	<path fill="#FFBE00" d="M685.8,167.6l-4.4,13.2h-2.4l-2.9-9.2l-2.9,9.2h-2.4l-4.4-13.2h2.7l3,9.8l2.9-9.8h2.2l2.9,9.8l2.9-9.8
		H685.8z"/>
	<path fill="#FFBE00" d="M691.5,165.6h-2.6V163h2.6V165.6z M689,167.6h2.4v13.2H689V167.6z"/>
	<path fill="#FFBE00" d="M697.9,181.6c0,3-1.5,4.4-4.7,4.4V184c2,0,2.3-1.1,2.3-2.4v-14h2.4V181.6z M695.4,163h2.6v2.6h-2.6V163z"/>
	<path fill="#FFBE00" d="M714.1,180.8h-3.2l-4.9-6.1l-1.6,1.6v4.6h-2.4v-18.2h2.4v10.6l5.7-5.5h3.3l-5.7,5.5L714.1,180.8z"/>
</g>
</svg>
