<svg id="ENECO-CMYK" xmlns="http://www.w3.org/2000/svg" xmlns:xlink="http://www.w3.org/1999/xlink" viewBox="0 0 170.08 85.04"><defs><style>.cls-1{fill:#d20f42;}.cls-2{fill:url(#radial-gradient);}.cls-3{fill:url(#radial-gradient-2);}.cls-4{fill:url(#radial-gradient-3);}.cls-5{fill:url(#radial-gradient-4);}.cls-6{fill:url(#radial-gradient-5);}</style><radialGradient id="radial-gradient" cx="70.58" cy="41.35" r="15.01" gradientTransform="translate(-34 -1.44) scale(0.92)" gradientUnits="userSpaceOnUse"><stop offset="0" stop-color="#ffe199"/><stop offset="0.12" stop-color="#fdda8e"/><stop offset="0.32" stop-color="#f8c771"/><stop offset="0.59" stop-color="#f1a841"/><stop offset="0.71" stop-color="#ed992a"/></radialGradient><radialGradient id="radial-gradient-2" cx="-110.06" cy="0.59" r="13.76" gradientTransform="translate(178.37 41.45) scale(1.5)" gradientUnits="userSpaceOnUse"><stop offset="0" stop-color="#fcda8a"/><stop offset="0.08" stop-color="#f9cc83"/><stop offset="0.23" stop-color="#f1a871"/><stop offset="0.43" stop-color="#e46e53"/><stop offset="0.67" stop-color="#d31e2a"/><stop offset="0.75" stop-color="#cc001b"/></radialGradient><radialGradient id="radial-gradient-3" cx="107.39" cy="60.85" r="13.76" gradientTransform="translate(-53.48 13.41) scale(0.83)" gradientUnits="userSpaceOnUse"><stop offset="0" stop-color="#f8d9c4"/><stop offset="0.71" stop-color="#cd0035"/></radialGradient><radialGradient id="radial-gradient-4" cx="97.39" cy="-3.83" r="8.26" gradientTransform="translate(-53.48 13.41) scale(0.83)" gradientUnits="userSpaceOnUse"><stop offset="0" stop-color="#fad59f"/><stop offset="0.88" stop-color="#d43f4d"/></radialGradient><radialGradient id="radial-gradient-5" cx="167.98" cy="44.73" r="13.76" gradientTransform="translate(-95.44 -6.86) scale(0.67)" gradientUnits="userSpaceOnUse"><stop offset="0" stop-color="#f8cfa0"/><stop offset="1" stop-color="#dd6317"/></radialGradient></defs><title>Tekengebied 1</title><path class="cls-1" d="M101,32.83c-6.52,0-11,2.67-11,12s5.19,12.25,11.49,12.25A29.65,29.65,0,0,0,110,55.84l-1.42-6a39.3,39.3,0,0,1-6,.57c-2.68,0-4.12-.41-4.2-2.81h13.28C112.49,35.1,109,32.83,101,32.83ZM97.89,43.14c.14-2.58,1.32-4.55,3.55-4.55s3.77,1.08,3.81,4.21ZM76.69,32.83A41.61,41.61,0,0,0,64.27,35V56.46h8.18V40.37a13.26,13.26,0,0,1,2.45-.31c2.77,0,3.23,1.08,3.23,4.3V56.46h8.17V43.81C86.29,35.63,82.94,32.83,76.69,32.83Zm50.66,6.88a19.73,19.73,0,0,1,5.06.89l1.6-6.78a26.27,26.27,0,0,0-7.46-1c-6.76,0-11.58,2.67-11.58,12s4.78,12.25,11.58,12.25A24.06,24.06,0,0,0,134,56l-1.6-6.79a15.22,15.22,0,0,1-5.06,1c-2.72,0-4.19-.48-4.19-5.17C123.15,40,124.63,39.7,127.35,39.7Zm-66.73-6.3L58.85,25.9H39.29V45.62c0,7.95,3.3,10.77,9.34,10.85H60.16V49H51c-2.06-.16-3.17-1.31-3.17-4.24h9.84V37.34H47.82V33.41Zm87-.58c-7.42,0-11.39,2.63-11.39,12s3.88,12.25,11.39,12.25,11.49-2.82,11.49-12.25S155.13,32.83,147.58,32.83Zm0,18c-2.55,0-3.22-.62-3.22-5.85,0-5.42.67-5.9,3.22-5.9s3.26.49,3.26,5.9C150.84,50.21,150.17,50.83,147.58,50.83Z"/><circle class="cls-2" cx="34.64" cy="40.87" r="8.08"/><circle class="cls-3" cx="19.18" cy="48.95" r="12.12"/><circle class="cls-4" cx="39.29" cy="67.8" r="6.73"/><circle class="cls-5" cx="29.64" cy="12.43" r="4.04"/><circle class="cls-6" cx="19.18" cy="25.9" r="5.38"/></svg>