<svg id="Layer_1" data-name="Layer 1" xmlns="http://www.w3.org/2000/svg" viewBox="0 0 460 240"><defs><style>.cls-1{fill:#2f3778;}</style></defs><title>Artboard 1</title><path class="cls-1" d="M229,183.92a42.16,42.16,0,0,0,29.82,12.55h89.39L424,120.7,348.23,44.88H305.38L366,105.52H284.17a12.11,12.11,0,0,1-8.39-3.37l-44.6-44.71a42.44,42.44,0,0,0-29.91-12.55H111.85L36.06,120.7l75.79,75.77h42.87L94.08,135.84H175.9a12.06,12.06,0,0,1,8.37,3.36Zm-23.38-66.2a42.38,42.38,0,0,0-29.76-12.2H94.08L124.39,75.2h76.88a12.26,12.26,0,0,1,8.42,3.64l44.67,44.76a42.28,42.28,0,0,0,29.81,12.24H366l-30.31,30.29-76.88,0a12.09,12.09,0,0,1-8.43-3.63Z"/></svg>