<?xml version="1.0" encoding="utf-8"?>
<!-- Generator: Adobe Illustrator 17.1.0, SVG Export Plug-In . SVG Version: 6.00 Build 0)  -->
<!DOCTYPE svg PUBLIC "-//W3C//DTD SVG 1.1//EN" "http://www.w3.org/Graphics/SVG/1.1/DTD/svg11.dtd">
<svg version="1.1" id="Layer_1" xmlns="http://www.w3.org/2000/svg" xmlns:xlink="http://www.w3.org/1999/xlink" x="0px" y="0px"
	 viewBox="0 0 84.3 362.7" enable-background="new 0 0 84.3 362.7" xml:space="preserve">
<path fill="none" stroke="#3ABFC9" stroke-width="5" stroke-linecap="round" stroke-linejoin="round" stroke-miterlimit="10" d="
	M43.8-5.6l-2.3,9.4L34,10.6L28.6,22l10.3,109.3l-2.7,19l-4.9,7.2l1.1,49.4l3.8,19l4.2,12.1c0,0,2.3,16.3,3.4,17.5
	c1.1,1.1,0,61.1,0,61.1l-4.9,18.2l-4.8,7.7"/>
<circle fill="none" stroke="#3ABFC9" stroke-width="3" stroke-miterlimit="10" cx="34.1" cy="342.5" r="4.3"/>
<circle fill="none" stroke="#FFFFFF" stroke-width="4" stroke-miterlimit="10" cx="34.1" cy="342.5" r="0.9"/>
<circle fill="none" stroke="#FFFFFF" stroke-width="4" stroke-miterlimit="10" cx="34.1" cy="342.5" r="2"/>
<path fill="none" stroke="#FFFFFF" stroke-miterlimit="10" d="M43.8-5.6l-2.3,9.4L34,10.6L28.6,22l10.3,109.3l-2.7,19l-4.9,7.2
	l1.1,49.4l3.8,19l4.2,12.1c0,0,2.3,16.3,3.4,17.5c1.1,1.1,0,61.1,0,61.1l-4.9,18.2l-4.8,7.7"/>
</svg>
